<svg width="52" height="52" viewBox="0 0 52 52" fill="none" xmlns="http://www.w3.org/2000/svg">
<g filter="url(#filter0_d)">
<path d="M48 21.9999C48 28.0751 45.5376 33.5751 41.5564 37.5563C37.5751 41.5375 32.0751 43.9999 26 43.9999C19.9249 43.9999 14.4249 41.5375 10.4437 37.5563C6.46243 33.5751 4 28.0751 4 21.9999C4 15.9248 6.46243 10.4248 10.4437 6.44359C14.4249 2.46237 19.9249 -6.10352e-05 26 -6.10352e-05C32.0751 -6.10352e-05 37.5751 2.46237 41.5564 6.44359C45.5376 10.4248 48 15.9248 48 21.9999Z" fill="white" fill-opacity="0.1"/>
<g clip-path="url(#clip0)">
<path d="M35.9951 32V31.9992H36.0001V24.6642C36.0001 21.0759 35.2276 18.3117 31.0326 18.3117C29.0159 18.3117 27.6626 19.4184 27.1101 20.4675H27.0517V18.6467H23.0742V31.9992H27.2159V25.3875C27.2159 23.6467 27.5459 21.9634 29.7017 21.9634C31.8259 21.9634 31.8576 23.95 31.8576 25.4992V32H35.9951Z" fill="white"/>
<path d="M16.3301 18.6475H20.4767V32H16.3301V18.6475Z" fill="white"/>
<path d="M18.4017 12C17.0758 12 16 13.0758 16 14.4017C16 15.7275 17.0758 16.8258 18.4017 16.8258C19.7275 16.8258 20.8033 15.7275 20.8033 14.4017C20.8025 13.0758 19.7267 12 18.4017 12V12Z" fill="white"/>
</g>
</g>
<defs>
<filter id="filter0_d" x="0" y="-6.10352e-05" width="52" height="52.0001" filterUnits="userSpaceOnUse" color-interpolation-filters="sRGB">
<feFlood flood-opacity="0" result="BackgroundImageFix"/>
<feColorMatrix in="SourceAlpha" type="matrix" values="0 0 0 0 0 0 0 0 0 0 0 0 0 0 0 0 0 0 127 0"/>
<feOffset dy="4"/>
<feGaussianBlur stdDeviation="2"/>
<feColorMatrix type="matrix" values="0 0 0 0 0 0 0 0 0 0 0 0 0 0 0 0 0 0 0.25 0"/>
<feBlend mode="normal" in2="BackgroundImageFix" result="effect1_dropShadow"/>
<feBlend mode="normal" in="SourceGraphic" in2="effect1_dropShadow" result="shape"/>
</filter>
<clipPath id="clip0">
<rect width="20" height="20" fill="white" transform="translate(16 12)"/>
</clipPath>
</defs>
</svg>
